<svg width="46" height="48" viewBox="0 0 46 48" fill="none" xmlns="http://www.w3.org/2000/svg">
<path d="M14.7697 38.3849C12.3972 32.9281 9.35469 23.5418 11.8419 13.9423C12.6785 9.59989 16.0255 1.72711 22.2764 4.5244C28.05 7.0469 26.7697 17.2473 25.6691 19.1954C43.2067 1.09233 55.6748 28.4711 14.7697 38.3849Z" fill="#E9190F"/>
<path d="M12.9639 38.4757C12.1735 36.6558 11.4789 34.7952 10.9034 32.8986C10.1868 30.5366 9.64376 28.1131 9.33141 25.6679C8.98753 22.9758 8.9422 20.2449 9.23217 17.5505C9.38175 16.1603 9.65384 14.8039 9.97383 13.4455C10.1516 12.6905 10.3159 11.9399 10.5511 11.1994C11.1421 9.33838 11.9235 7.57227 13.0516 5.97092C14.0815 4.50867 15.5231 3.18649 17.2801 2.67013C19.3866 2.0512 21.6304 2.60753 23.4179 3.83787C25.0191 4.94013 26.0398 6.76621 26.5699 8.58892C27.1306 10.5167 27.2599 12.5081 27.1616 14.4981C27.0882 15.9841 26.876 17.4791 26.3735 18.8823C26.3074 19.0667 26.2332 19.2491 26.1375 19.4203C25.4556 18.9721 24.7736 18.5239 24.0918 18.0758C25.6498 16.4701 27.3658 14.972 29.2839 13.8021C30.8235 12.863 32.4724 12.145 34.2501 11.7928C35.5117 11.5428 36.8875 11.5218 38.1323 11.8971C39.4261 12.2872 40.5273 12.9763 41.3771 14.0341C42.1457 14.9907 42.5638 16.2187 42.6879 17.4224C42.8384 18.8811 42.5466 20.327 42.0591 21.6917C41.481 23.3098 40.5333 24.7982 39.4595 26.131C38.0743 27.8502 36.3976 29.3422 34.6227 30.6537C32.3395 32.3409 29.8392 33.72 27.2629 34.9159C24.0906 36.3882 20.7728 37.5448 17.4011 38.487C16.4514 38.7523 15.4966 38.9999 14.538 39.2328C14.2128 39.3118 13.9095 39.328 13.5959 39.1771C13.3228 39.0458 13.0544 38.7688 12.9639 38.4757C12.7825 37.8889 13.0447 37.079 13.7122 36.9169C17.2558 36.0562 20.7531 34.9881 24.1246 33.6082C24.8506 33.3111 25.5704 32.9992 26.2828 32.6716C26.6285 32.5125 26.9725 32.3496 27.3145 32.1828C27.3935 32.1442 27.4721 32.1049 27.5512 32.0666C27.2036 32.2348 27.4789 32.1022 27.5626 32.0601C27.7357 31.9731 27.9081 31.8849 28.08 31.7957C29.2754 31.1757 30.4437 30.5036 31.5713 29.7696C32.5675 29.1213 33.5323 28.4244 34.4501 27.6705C34.6649 27.4941 34.8697 27.3042 35.0871 27.1313C35.0972 27.1233 34.8255 27.3622 34.9571 27.2452C34.981 27.2241 35.0049 27.2029 35.0288 27.1818C35.0763 27.1395 35.1237 27.0972 35.1708 27.0546C35.2757 26.96 35.3796 26.8645 35.4829 26.7683C35.8516 26.4242 36.21 26.0691 36.5555 25.7022C37.1825 25.0366 37.7687 24.3319 38.2948 23.5845C38.3531 23.5018 38.4106 23.4182 38.4674 23.3344C38.4987 23.2883 38.5272 23.2381 38.5613 23.194C38.5816 23.1679 38.3533 23.5133 38.4423 23.3746C38.459 23.3486 38.4758 23.3228 38.4926 23.2968C38.6008 23.1287 38.7057 22.9586 38.8073 22.7863C39.0062 22.4486 39.1917 22.1031 39.361 21.7497C39.517 21.4238 39.6594 21.0915 39.7851 20.7529C39.8139 20.6752 39.842 20.5973 39.8691 20.519C39.8824 20.4803 39.8954 20.4415 39.9085 20.4028C39.9884 20.1671 39.8111 20.7123 39.8593 20.5558C39.9088 20.3945 39.9569 20.2329 39.9995 20.0695C40.0796 19.7628 40.1446 19.4522 40.1918 19.1385C40.2147 18.9867 40.2335 18.8342 40.2479 18.6813C40.2543 18.6109 40.26 18.5405 40.2648 18.4699C40.2672 18.435 40.2688 18.4001 40.271 18.3651C40.2822 18.1905 40.2588 18.7494 40.2628 18.5392C40.2684 18.2534 40.265 17.9688 40.2389 17.6835C40.2268 17.5509 40.2105 17.4187 40.19 17.287C40.1796 17.2205 40.1681 17.1539 40.1556 17.0877C40.1498 17.0569 40.1431 17.0261 40.1371 16.9951C40.0994 16.7991 40.2166 17.3365 40.1765 17.176C40.1144 16.9273 40.0457 16.6825 39.9539 16.4426C39.9087 16.3248 39.8593 16.2082 39.8056 16.0938C39.7931 16.0672 39.7796 16.0409 39.7673 16.0142C39.6881 15.8426 39.9181 16.3006 39.8603 16.1965C39.83 16.1423 39.8021 16.0868 39.7714 16.0327C39.652 15.8225 39.5168 15.6208 39.367 15.4306C39.3314 15.3854 39.2947 15.3413 39.258 15.2974C39.0813 15.0856 39.5204 15.5779 39.3276 15.3758C39.2434 15.2874 39.158 15.2006 39.0681 15.1181C38.8889 14.9536 38.6964 14.8095 38.4974 14.6702C38.9668 14.9991 38.5939 14.7334 38.4462 14.6505C38.3357 14.5886 38.223 14.531 38.1082 14.4776C37.9913 14.4232 37.8725 14.3732 37.752 14.3275C37.6944 14.3056 37.6362 14.2856 37.5783 14.265C37.3903 14.1978 37.9038 14.367 37.7825 14.3315C37.7487 14.3217 37.7152 14.3106 37.6817 14.3005C37.4235 14.2238 37.16 14.1656 36.894 14.1242C36.7532 14.1023 36.6119 14.0852 36.4701 14.0725C36.4018 14.0664 36.3334 14.0627 36.2652 14.0573C36.14 14.0472 36.6597 14.0738 36.4547 14.0675C36.411 14.0662 36.3672 14.0643 36.3236 14.0634C36.0193 14.0563 35.7148 14.0682 35.412 14.0963C35.0866 14.1265 34.7668 14.1811 34.446 14.2395C34.3183 14.2628 34.8181 14.159 34.6055 14.2066C34.5655 14.2157 34.5256 14.2243 34.4858 14.2334C34.3948 14.2543 34.3043 14.2765 34.214 14.2998C34.0438 14.3437 33.8746 14.392 33.7067 14.4438C33.3461 14.5553 32.9913 14.6841 32.6426 14.8273C32.4554 14.9041 32.2698 14.9852 32.0861 15.0699C31.9972 15.1109 31.9087 15.1529 31.8207 15.1955C31.7985 15.2062 31.7763 15.2172 31.754 15.2281C31.6118 15.2969 31.9557 15.1224 31.9349 15.1384C31.8881 15.1744 31.8197 15.1964 31.767 15.2235C30.9563 15.6409 30.1817 16.1258 29.441 16.6552C29.0276 16.9508 28.6246 17.2606 28.2312 17.582C28.0204 17.7543 27.8129 17.9303 27.6072 18.1084C27.4175 18.2728 27.8497 17.8933 27.661 18.0612C27.6116 18.1052 27.5622 18.1491 27.5129 18.1933C27.4069 18.2885 27.3015 18.3845 27.197 18.4813C26.7727 18.8738 26.3604 19.2791 25.958 19.6937C25.5309 20.1338 24.8851 20.2418 24.3577 19.8959C23.8739 19.5784 23.6145 18.8821 23.9124 18.3491C24.0081 18.178 24.0824 17.9955 24.1484 17.8111C24.1675 17.758 24.1835 17.7036 24.2034 17.6509C24.1944 17.6746 24.0836 18.033 24.14 17.8452C24.1508 17.8087 24.1622 17.7723 24.1731 17.7358C24.2121 17.6036 24.2478 17.4703 24.2811 17.3365C24.4477 16.6679 24.5583 15.985 24.635 15.3001C24.6799 14.9 24.7111 14.4987 24.7324 14.0965C24.7443 13.8734 24.7207 14.3951 24.7276 14.2085C24.7292 14.1626 24.7311 14.1166 24.7327 14.0707C24.7365 13.9548 24.7393 13.8386 24.7412 13.7227C24.7446 13.5103 24.7444 13.2979 24.7407 13.0856C24.7254 12.1972 24.6497 11.3078 24.4938 10.4313C24.4754 10.3273 24.4556 10.2234 24.4348 10.1198C24.4238 10.0652 24.4063 10.0084 24.4 9.95286C24.3962 9.91795 24.4705 10.2608 24.4409 10.1408C24.4312 10.1015 24.423 10.0617 24.4138 10.0224C24.3643 9.81027 24.3091 9.59944 24.2484 9.39013C24.1263 8.97023 23.9806 8.55658 23.8061 8.15475C23.7655 8.0611 23.7233 7.96827 23.6796 7.87595C23.6568 7.8279 23.6257 7.77849 23.6079 7.72827C23.5959 7.69426 23.756 8.01144 23.6976 7.90464C23.679 7.87045 23.6618 7.83553 23.6435 7.80126C23.5452 7.61699 23.4399 7.43651 23.3273 7.26057C23.2116 7.07989 23.0879 6.904 22.956 6.73443C22.8952 6.65606 22.8324 6.57901 22.768 6.50335C22.6386 6.35156 22.8092 6.55783 22.8598 6.60459C22.8155 6.56366 22.7768 6.51401 22.7351 6.4703C22.4399 6.16187 22.1136 5.90114 21.768 5.6518C21.6646 5.57723 21.9838 5.78844 21.9474 5.76871C21.9204 5.75412 21.8942 5.73452 21.8681 5.71814C21.8279 5.69303 21.7875 5.66857 21.7469 5.64443C21.6442 5.58362 21.5395 5.52606 21.4331 5.47169C21.2261 5.36569 21.0123 5.27152 20.7961 5.18554C20.6877 5.14243 20.5778 5.1042 20.4683 5.06394C20.3899 5.03505 20.8041 5.16894 20.5594 5.09413C20.4941 5.07416 20.4286 5.05525 20.3628 5.03723C20.1494 4.97906 19.933 4.93209 19.7146 4.89777C19.6138 4.88193 19.5125 4.86868 19.4111 4.85835C19.3574 4.85298 19.3036 4.84914 19.2498 4.8445C19.0186 4.82424 19.5761 4.8516 19.3416 4.85C19.1417 4.84857 18.9429 4.85052 18.7436 4.86866C18.6501 4.87718 18.5569 4.88844 18.4641 4.90229C18.4144 4.90966 18.3652 4.91864 18.3158 4.92673C18.2947 4.93021 18.2738 4.93539 18.2526 4.93862C18.135 4.95599 18.5972 4.85893 18.4146 4.90513C18.2295 4.95216 18.0464 4.99949 17.8661 5.06242C17.6796 5.12759 17.5027 5.20957 17.3218 5.28764C17.2504 5.3184 17.6293 5.12841 17.4521 5.22351C17.4087 5.24691 17.365 5.26934 17.3217 5.29322C17.2351 5.34091 17.1498 5.39101 17.0656 5.44287C16.8956 5.54784 16.7311 5.6614 16.5719 5.78178C16.497 5.83832 16.4236 5.89654 16.3512 5.95588C16.3175 5.98353 16.2845 6.01175 16.2511 6.03957C16.0736 6.18678 16.492 5.82049 16.3253 5.9743C16.0241 6.2525 15.74 6.54579 15.4767 6.86005C15.3397 7.02372 15.2077 7.19186 15.0807 7.36334C15.021 7.44381 14.9626 7.52509 14.905 7.60716C14.8738 7.65146 14.843 7.69616 14.8125 7.74078C14.7788 7.79028 14.6597 7.97017 14.7989 7.75866C14.9471 7.53344 14.7525 7.83251 14.712 7.89698C14.6496 7.99659 14.5887 8.09691 14.5291 8.19802C14.4211 8.38086 14.317 8.566 14.2168 8.75319C13.8114 9.50997 13.4664 10.299 13.1708 11.105C13.0981 11.3032 13.0286 11.5028 12.962 11.7031C12.9482 11.7449 12.9376 11.7897 12.9202 11.8302C12.9119 11.8497 13.0321 11.4782 12.9804 11.6446C12.9739 11.6657 12.967 11.6867 12.9604 11.7077C12.9298 11.805 12.8999 11.9024 12.8707 12.0002C12.7614 12.3661 12.6621 12.7352 12.5737 13.1068C12.314 14.1993 12.0571 15.2957 11.8762 16.4048C11.7688 17.0638 11.6842 17.7266 11.6215 18.3916C11.5901 18.7255 11.5641 19.0597 11.5438 19.3945C11.5344 19.5489 11.5276 19.7034 11.5188 19.8577C11.5182 19.8704 11.5298 19.5837 11.5253 19.7182C11.5241 19.7537 11.5224 19.7891 11.5211 19.8247C11.5176 19.9192 11.5145 20.0139 11.5118 20.1083C11.4756 21.3829 11.516 22.6598 11.6241 23.9313C11.7277 25.1503 11.8938 26.3642 12.1143 27.5685C12.1687 27.8653 12.2264 28.1617 12.2873 28.4574C12.3154 28.5933 12.3444 28.7288 12.3733 28.8644C12.4007 28.9927 12.3364 28.6936 12.3404 28.7131C12.3486 28.7545 12.3587 28.7958 12.3678 28.8371C12.384 28.9092 12.4002 28.9813 12.4168 29.0533C12.5439 29.6085 12.6819 30.1613 12.8302 30.7114C13.3607 32.6775 14.0232 34.6086 14.7924 36.4967C14.9528 36.8906 15.1181 37.2824 15.2876 37.6726C15.5448 38.2649 15.1463 39.0504 14.5393 39.2314C13.8642 39.4336 13.2381 39.1074 12.9639 38.4757Z" fill="black"/>
</svg>
