<svg width="46" height="48" viewBox="0 0 46 48" fill="none" xmlns="http://www.w3.org/2000/svg">
<mask id="mask0_328_2433" style="mask-type:luminance" maskUnits="userSpaceOnUse" x="0" y="0" width="46" height="48">
<path d="M15.7246 0.523616L45.6787 14.9304L30.0084 47.5701L0.0542725 33.1633L15.7246 0.523616Z" fill="white"/>
</mask>
<g mask="url(#mask0_328_2433)">
<path d="M14.8205 38.9083C12.448 33.4516 9.40544 24.0652 11.8926 14.4657C12.7292 10.1233 16.0762 2.25056 22.3271 5.04785C28.1008 7.57035 26.8205 17.7707 25.7199 19.7188C43.2574 1.61578 55.7256 28.9946 14.8205 38.9083Z" fill="#E9190F"/>
<path d="M13.0145 38.9992C12.2242 37.1793 11.5296 35.3187 10.9541 33.422C10.2375 31.0601 9.69441 28.6365 9.38206 26.1914C9.03818 23.4992 8.99285 20.7684 9.28282 18.074C9.4324 16.6837 9.70449 15.3274 10.0245 13.969C10.2023 13.2139 10.3666 12.4634 10.6017 11.7229C11.1928 9.86184 11.9741 8.09573 13.1022 6.49438C14.1322 5.03213 15.5737 3.70995 17.3308 3.19359C19.4373 2.57466 21.6811 3.13099 23.4686 4.36133C25.0698 5.46359 26.0904 7.28967 26.6205 9.11238C27.1812 11.0402 27.3105 13.0315 27.2122 15.0216C27.1389 16.5076 26.9267 18.0026 26.4241 19.4058C26.3581 19.5901 26.2838 19.7726 26.1881 19.9437C25.5063 19.4956 24.8243 19.0474 24.1425 18.5992C25.7005 16.9935 27.4164 15.4954 29.3345 14.3255C30.8741 13.3865 32.523 12.6685 34.3008 12.3163C35.5624 12.0663 36.9382 12.0453 38.183 12.4206C39.4767 12.8106 40.5779 13.4998 41.4277 14.5575C42.1964 15.5142 42.6145 16.7422 42.7385 17.9459C42.8891 19.4046 42.5973 20.8504 42.1098 22.2152C41.5316 23.8332 40.584 25.3216 39.5102 26.6544C38.125 28.3737 36.4482 29.8656 34.6734 31.1771C32.3902 32.8644 29.8898 34.2434 27.3136 35.4393C24.1413 36.9117 20.8234 38.0683 17.4518 39.0104C16.502 39.2758 15.5473 39.5234 14.5886 39.7563C14.2635 39.8352 13.9601 39.8514 13.6466 39.7006C13.3734 39.5692 13.105 39.2923 13.0145 38.9992C12.8332 38.4123 13.0954 37.6025 13.7629 37.4404C17.3065 36.5797 20.8037 35.5116 24.1752 34.1316C24.9013 33.8346 25.6211 33.5227 26.3335 33.195C26.6791 33.0359 27.0231 32.8731 27.3652 32.7062C27.4442 32.6677 27.5227 32.6284 27.6018 32.5901C27.2542 32.7583 27.5295 32.6256 27.6132 32.5836C27.7863 32.4965 27.9587 32.4084 28.1306 32.3191C29.3261 31.6992 30.4944 31.027 31.6219 30.2931C32.6182 29.6448 33.5829 28.9479 34.5008 28.194C34.7155 28.0176 34.9204 27.8276 35.1377 27.6547C35.1478 27.6468 34.8761 27.8857 35.0078 27.7687C35.0317 27.7476 35.0556 27.7264 35.0795 27.7052C35.1269 27.6629 35.1743 27.6206 35.2215 27.578C35.3264 27.4834 35.4303 27.388 35.5335 27.2918C35.9022 26.9477 36.2606 26.5926 36.6061 26.2257C37.2332 25.5601 37.8193 24.8554 38.3454 24.108C38.4038 24.0252 38.4613 23.9417 38.5181 23.8579C38.5493 23.8118 38.5779 23.7616 38.612 23.7175C38.6322 23.6914 38.4039 24.0367 38.4929 23.898C38.5097 23.872 38.5265 23.8463 38.5432 23.8203C38.6515 23.6522 38.7564 23.4821 38.8579 23.3097C39.0568 22.9721 39.2423 22.6266 39.4116 22.2731C39.5677 21.9473 39.71 21.6149 39.8358 21.2763C39.8646 21.1986 39.8927 21.1208 39.9197 21.0425C39.933 21.0038 39.946 20.965 39.9592 20.9262C40.0391 20.6906 39.8617 21.2357 39.91 21.0792C39.9595 20.918 40.0075 20.7564 40.0502 20.593C40.1302 20.2863 40.1952 19.9756 40.2425 19.662C40.2654 19.5101 40.2841 19.3577 40.2985 19.2047C40.305 19.1343 40.3107 19.0639 40.3155 18.9933C40.3178 18.9584 40.3194 18.9235 40.3217 18.8885C40.3328 18.714 40.3095 19.2729 40.3135 19.0627C40.319 18.7769 40.3157 18.4922 40.2896 18.207C40.2774 18.0743 40.2612 17.9421 40.2406 17.8105C40.2303 17.744 40.2188 17.6773 40.2062 17.6112C40.2004 17.5804 40.1938 17.5495 40.1878 17.5186C40.15 17.3225 40.2673 17.8599 40.2272 17.6994C40.1651 17.4508 40.0963 17.206 40.0045 16.9661C39.9594 16.8482 39.9099 16.7317 39.8562 16.6173C39.8437 16.5907 39.8302 16.5644 39.818 16.5376C39.7387 16.3661 39.9687 16.8241 39.9109 16.7199C39.8807 16.6657 39.8527 16.6102 39.822 16.5562C39.7027 16.3459 39.5674 16.1443 39.4176 15.954C39.3821 15.9089 39.3454 15.8648 39.3086 15.8209C39.1319 15.6091 39.5711 16.1013 39.3782 15.8992C39.294 15.8108 39.2086 15.7241 39.1187 15.6416C38.9396 15.4771 38.747 15.333 38.5481 15.1937C39.0175 15.5226 38.6446 15.2569 38.4968 15.174C38.3864 15.1121 38.2736 15.0544 38.1589 15.0011C38.042 14.9466 37.9231 14.8967 37.8027 14.851C37.745 14.829 37.6868 14.8091 37.629 14.7885C37.4409 14.7213 37.9544 14.8905 37.8331 14.855C37.7994 14.8452 37.7659 14.8341 37.7323 14.8239C37.4742 14.7473 37.2106 14.689 36.9446 14.6476C36.8038 14.6258 36.6625 14.6087 36.5207 14.596C36.4525 14.5898 36.3841 14.5861 36.3158 14.5808C36.1906 14.5706 36.7103 14.5972 36.5053 14.591C36.4617 14.5896 36.4179 14.5878 36.3742 14.5868C36.07 14.5797 35.7654 14.5917 35.4626 14.6198C35.1372 14.65 34.8175 14.7045 34.4967 14.763C34.369 14.7863 34.8687 14.6825 34.6561 14.7301C34.6162 14.7391 34.5762 14.7477 34.5365 14.7569C34.4455 14.7778 34.3549 14.8 34.2647 14.8233C34.0945 14.8672 33.9252 14.9154 33.7573 14.9673C33.3967 15.0787 33.042 15.2076 32.6932 15.3508C32.506 15.4276 32.3205 15.5086 32.1368 15.5934C32.0479 15.6344 31.9594 15.6763 31.8713 15.7189C31.8492 15.7297 31.8269 15.7406 31.8047 15.7516C31.6624 15.8204 32.0064 15.6458 31.9855 15.6619C31.9387 15.6978 31.8703 15.7198 31.8176 15.747C31.0069 16.1644 30.2324 16.6493 29.4917 17.1787C29.0783 17.4742 28.6753 17.784 28.2818 18.1054C28.0711 18.2777 27.8636 18.4538 27.6579 18.6319C27.4681 18.7963 27.9003 18.4168 27.7117 18.5847C27.6623 18.6286 27.6129 18.6726 27.5635 18.7167C27.4575 18.812 27.3522 18.908 27.2476 19.0047C26.8233 19.3972 26.4111 19.8025 26.0087 20.2172C25.5816 20.6572 24.9357 20.7653 24.4084 20.4193C23.9246 20.1019 23.6651 19.4056 23.9631 18.8726C24.0588 18.7014 24.133 18.519 24.1991 18.3346C24.2181 18.2815 24.2341 18.2271 24.254 18.1743C24.245 18.198 24.1343 18.5564 24.1907 18.3686C24.2015 18.3322 24.2129 18.2958 24.2237 18.2593C24.2627 18.127 24.2984 17.9937 24.3317 17.8599C24.4983 17.1914 24.609 16.5084 24.6857 15.8235C24.7305 15.4234 24.7617 15.0221 24.7831 14.6199C24.7949 14.3968 24.7714 14.9186 24.7782 14.732C24.7799 14.6861 24.7817 14.6401 24.7833 14.5942C24.7872 14.4783 24.79 14.362 24.7918 14.2461C24.7952 14.0338 24.7951 13.8214 24.7914 13.6091C24.7761 12.7207 24.7004 11.8313 24.5445 10.9547C24.526 10.8507 24.5063 10.7469 24.4854 10.6433C24.4744 10.5887 24.457 10.5318 24.4507 10.4763C24.4468 10.4414 24.5211 10.7843 24.4915 10.6643C24.4819 10.625 24.4737 10.5851 24.4644 10.5458C24.4149 10.3337 24.3598 10.1229 24.299 9.91359C24.177 9.49369 24.0313 9.08004 23.8568 8.67821C23.8162 8.58456 23.774 8.49173 23.7303 8.39941C23.7074 8.35136 23.6763 8.30195 23.6586 8.25173C23.6466 8.21772 23.8067 8.5349 23.7483 8.4281C23.7297 8.39391 23.7125 8.35899 23.6941 8.32473C23.5959 8.14045 23.4906 7.95997 23.378 7.78403C23.2622 7.60335 23.1385 7.42746 23.0067 7.25789C22.9458 7.17952 22.8831 7.10247 22.8186 7.02681C22.6892 6.87502 22.8599 7.08129 22.9104 7.12805C22.8662 7.08712 22.8275 7.03747 22.7858 6.99376C22.4906 6.68533 22.1643 6.4246 21.8187 6.17526C21.7153 6.10069 22.0345 6.3119 21.998 6.29217C21.971 6.27759 21.9448 6.25798 21.9187 6.2416C21.8786 6.21649 21.8381 6.19203 21.7975 6.16789C21.6948 6.10708 21.5902 6.04952 21.4838 5.99515C21.2767 5.88916 21.063 5.79498 20.8468 5.709C20.7384 5.66589 20.6285 5.62766 20.5189 5.5874C20.4406 5.55851 20.8547 5.6924 20.61 5.61759C20.5448 5.59762 20.4792 5.57871 20.4134 5.56069C20.2 5.50252 19.9836 5.45555 19.7653 5.42123C19.6644 5.40539 19.5632 5.39214 19.4617 5.38181C19.4081 5.37644 19.3543 5.3726 19.3005 5.36796C19.0693 5.3477 19.6268 5.37506 19.3923 5.37346C19.1923 5.37203 18.9935 5.37398 18.7942 5.39212C18.7007 5.40064 18.6075 5.4119 18.5147 5.42575C18.465 5.43312 18.4158 5.4421 18.3664 5.45019C18.3453 5.45367 18.3244 5.45885 18.3033 5.46208C18.1857 5.47945 18.6478 5.38239 18.4652 5.42859C18.2802 5.47562 18.097 5.52296 17.9167 5.58588C17.7303 5.65105 17.5533 5.73304 17.3724 5.8111C17.301 5.84186 17.6799 5.65187 17.5028 5.74697C17.4594 5.77037 17.4156 5.7928 17.3724 5.81668C17.2858 5.86437 17.2004 5.91447 17.1162 5.96634C16.9463 6.0713 16.7817 6.18486 16.6226 6.30524C16.5477 6.36178 16.4742 6.42 16.4018 6.47934C16.3681 6.50699 16.3352 6.53521 16.3018 6.56303C16.1243 6.71024 16.5427 6.34395 16.376 6.49776C16.0747 6.77596 15.7907 7.06925 15.5273 7.38351C15.3903 7.54718 15.2584 7.71532 15.1314 7.8868C15.0717 7.96728 15.0132 8.04855 14.9556 8.13062C14.9245 8.17492 14.8937 8.21962 14.8632 8.26424C14.8295 8.31374 14.7103 8.49363 14.8495 8.28212C14.9977 8.0569 14.8031 8.35597 14.7627 8.42044C14.7003 8.52005 14.6394 8.62037 14.5797 8.72148C14.4717 8.90432 14.3677 9.08946 14.2675 9.27665C13.8621 10.0334 13.517 10.8225 13.2215 11.6285C13.1488 11.8267 13.0793 12.0262 13.0126 12.2266C12.9988 12.2684 12.9882 12.3132 12.9708 12.3537C12.9625 12.3731 13.0828 12.0017 13.031 12.1681C13.0245 12.1892 13.0177 12.2102 13.011 12.2312C12.9805 12.3285 12.9505 12.4259 12.9214 12.5236C12.8121 12.8895 12.7128 13.2587 12.6244 13.6302C12.3647 14.7227 12.1078 15.8192 11.9268 16.9283C11.8195 17.5872 11.7349 18.2501 11.6721 18.9151C11.6407 19.2489 11.6148 19.5832 11.5944 19.918C11.5851 20.0723 11.5782 20.2269 11.5695 20.3812C11.5689 20.3939 11.5805 20.1072 11.576 20.2417C11.5747 20.2771 11.5731 20.3126 11.5718 20.3482C11.5683 20.4427 11.5651 20.5373 11.5625 20.6318C11.5263 21.9063 11.5667 23.1832 11.6748 24.4548C11.7784 25.6737 11.9444 26.8877 12.165 28.0919C12.2193 28.3887 12.2771 28.6851 12.338 28.9809C12.366 29.1168 12.395 29.2523 12.424 29.3878C12.4514 29.5162 12.3871 29.217 12.391 29.2366C12.3993 29.278 12.4094 29.3193 12.4185 29.3606C12.4347 29.4326 12.4508 29.5047 12.4674 29.5768C12.5945 30.132 12.7325 30.6847 12.8809 31.2349C13.4113 33.201 14.0738 35.1321 14.843 37.0201C15.0035 37.414 15.1688 37.8058 15.3383 38.1961C15.5955 38.7883 15.1969 39.5738 14.5899 39.7549C13.9149 39.9571 13.2888 39.6309 13.0145 38.9992Z" fill="#FBECE7"/>
</g>
</svg>
