<svg width="24" height="24" viewBox="0 0 24 24" fill="none" xmlns="http://www.w3.org/2000/svg">
<path d="M12.0001 1.992C10.1898 1.99234 8.41358 2.48408 6.86085 3.41477C5.30811 4.34546 4.03715 5.68019 3.18352 7.27659C2.32989 8.87298 1.92562 10.6712 2.01384 12.4793C2.10205 14.2874 2.67944 16.0377 3.68441 17.5434C4.68939 19.0492 6.08424 20.2538 7.7202 21.029C9.35615 21.8041 11.1718 22.1206 12.9736 21.9447C14.7753 21.7688 16.4955 21.1071 17.9506 20.0302C19.4058 18.9534 20.5413 17.5017 21.2361 15.83C21.5771 15.01 20.7601 14.186 19.9381 14.52C18.5293 15.0907 16.965 15.1496 15.5173 14.6864C14.0695 14.2233 12.8299 13.2674 12.0139 11.985C11.1978 10.7026 10.8571 9.17478 11.0508 7.66716C11.2445 6.15953 11.9604 4.76747 13.0741 3.733L13.1511 3.653C13.7021 3.023 13.2641 2 12.3931 2H12.1271L12.0591 1.994L12.0001 1.992Z" fill="white"/>
</svg>
